<svg width="100" height="100" viewBox="0 0 100 100" fill="none" xmlns="http://www.w3.org/2000/svg">
<g clip-path="url(#clip0_711_199)">
<path d="M99.9765 92.9075L92.1203 49.624C92.0419 49.1919 91.774 48.8177 91.39 48.6042L71.6161 37.6062C71.3595 37.4632 71.0718 37.4064 70.7892 37.4282L74.3867 83.8362L74.2661 83.8901L97.931 94.5067C98.1236 94.5928 98.3283 94.6354 98.532 94.6354C98.8545 94.6354 99.174 94.5293 99.4367 94.3237C99.866 93.9885 100.074 93.4432 99.9765 92.9075Z" fill="#28A248"/>
<path d="M50.0001 48.1202L29.7765 37.5868C29.5341 37.4604 29.2653 37.4088 29.0007 37.4266C29.0708 37.4223 29.1413 37.4227 29.2112 37.4282L25.6138 83.8361L49.3992 94.5068C49.5912 94.5928 49.796 94.6355 50.0001 94.6355V48.1202Z" fill="#32BD56"/>
<path d="M29.211 37.4284C28.9284 37.4066 28.6407 37.4634 28.384 37.6062L8.60995 48.6042C8.22597 48.8177 7.958 49.1917 7.87968 49.624L0.0236089 92.9075C-0.0736569 93.443 0.134156 93.9883 0.563258 94.3239C0.826345 94.5295 1.14568 94.6356 1.46795 94.6356C1.67166 94.6356 1.87654 94.5932 2.06893 94.5069L25.6049 83.9481L29.211 37.4284Z" fill="#56D777"/>
<path d="M70.789 37.4274C70.5945 37.4425 70.4021 37.4942 70.2238 37.5872L50.0001 48.1204V94.6357C50.0001 94.6357 50.0001 94.6357 50.0003 94.6357C50.2044 94.6357 50.4095 94.5932 50.6013 94.507L74.3867 83.8363L70.789 37.4274Z" fill="#2FB652"/>
<path d="M5.49886 62.7409L3.90295 71.5337L27.5346 59.0521L28.0833 51.9741L28.1743 50.8003L5.49886 62.7409Z" fill="#FFDB56"/>
<path d="M27.7473 56.3076L27.5346 59.0521L3.90291 71.5338L0.0236089 92.9074C-0.0736569 93.443 0.134156 93.9883 0.563258 94.3238C0.826345 94.5295 1.14568 94.6356 1.46795 94.6356C1.67166 94.6356 1.87654 94.5932 2.06893 94.5069L25.6049 83.948L27.7473 56.3076Z" fill="#A8EEFC"/>
<path d="M50.0059 53.922L28.1742 50.8003L27.5345 59.0521L50 93.1691V80.7632L36.5943 59.6542L50.0059 61.2583V53.922Z" fill="#FEB618"/>
<path d="M89.8333 47.7385L80.3343 42.4551L71.3417 44.5563L71.4542 46.0087L71.8983 51.738L89.8333 47.7385Z" fill="#FEB618"/>
<path d="M72.6959 62.0267L71.8443 51.0405L71.3418 44.5563L50.006 53.922V61.2583L63.9427 55.1978L72.6959 62.0267Z" fill="#FFDB56"/>
<path d="M99.9765 92.9075L98.0032 82.0352L71.8983 51.738L72.696 62.0267L99.4675 94.2965C99.8745 93.9592 100.071 93.4295 99.9765 92.9075Z" fill="#FEB618"/>
<path d="M50.094 5.36426C38.7731 5.36426 29.5627 14.567 29.5627 25.8787C29.5627 32.876 32.8848 40.3885 39.437 48.2073C44.2493 53.9501 48.9962 57.6436 49.196 57.7981C49.4604 58.0026 49.7772 58.1048 50.0942 58.1048C50.411 58.1048 50.728 58.0026 50.9925 57.7981C51.1921 57.6436 55.9392 53.9501 60.7515 48.2073C67.3036 40.3885 70.6257 32.8762 70.6257 25.8787C70.6253 14.567 61.4149 5.36426 50.094 5.36426ZM57.6976 25.8786C57.6976 30.0743 54.2933 33.4758 50.094 33.4758C45.8948 33.4758 42.4905 30.0745 42.4905 25.8786C42.4905 21.6826 45.8948 18.2813 50.094 18.2813C54.2933 18.2813 57.6976 21.6828 57.6976 25.8786Z" fill="#FF4415"/>
<path d="M50.094 5.36426C49.1968 5.36426 48.313 5.42246 47.4458 5.53457C57.5206 6.83672 65.329 15.4635 65.329 25.8787C65.329 32.876 62.007 40.3885 55.4548 48.2073C52.3601 51.9003 49.2946 54.7438 47.446 56.3458C48.4722 57.2349 49.1249 57.7431 49.196 57.7981C49.4605 58.0026 49.7772 58.1048 50.0942 58.1048C50.411 58.1048 50.728 58.0026 50.9925 57.7981C51.1921 57.6436 55.9392 53.9501 60.7515 48.2073C67.3036 40.3885 70.6257 32.8762 70.6257 25.8787C70.6253 14.567 61.415 5.36426 50.094 5.36426Z" fill="#E13E15"/>
<path d="M50.6013 94.5069L59.446 90.5389L50.0001 80.7633V94.6356C50.0001 94.6356 50.0001 94.6356 50.0003 94.6356C50.2044 94.6356 50.4093 94.5932 50.6013 94.5069Z" fill="#FFBF33"/>
<path d="M92.1201 49.624C92.0418 49.1919 91.7738 48.8177 91.3898 48.6042L89.8332 47.7384L71.8982 51.7378L98.0029 82.0349L92.1201 49.624Z" fill="#1EA4E9"/>
<path d="M49.9998 94.6355C50 94.6355 50 94.6355 49.9998 94.6355V93.1691L27.5346 59.0521L25.6133 83.8363L49.3987 94.507C49.5907 94.5932 49.7955 94.6355 49.9998 94.6355Z" fill="#1EA4E9"/>
</g>
<defs>
<clipPath id="clip0_711_199">
<rect width="100" height="100" fill="white"/>
</clipPath>
</defs>
</svg>
