<svg width="100" height="100" viewBox="0 0 100 100" fill="none" xmlns="http://www.w3.org/2000/svg">
<g clip-path="url(#clip0_711_165)">
<path d="M84.3738 4.02422V95.976C84.3738 98.1992 82.573 100 80.3496 100H12.6535C10.4302 100 8.62927 98.1994 8.62927 95.976V4.02422C8.62927 1.80078 10.4301 0 12.6535 0H29.3054V5.825C29.3054 6.9377 30.2068 7.83711 31.3176 7.83711H61.8869C62.9976 7.83711 63.899 6.9377 63.899 5.825V0H80.3498C82.5728 0 84.3738 1.80078 84.3738 4.02422Z" fill="#FEB618"/>
<path d="M84.3748 4.02422V95.976C84.3748 98.1992 82.5721 100 80.3506 100H76.3889C78.6102 100 80.4131 98.1994 80.4131 95.976V4.02422C80.4129 1.80078 78.6102 0 76.3889 0H80.3506C82.5719 0 84.3748 1.80078 84.3748 4.02422Z" fill="#FB9927"/>
<path d="M84.3748 22.9195V45.6679C82.6484 46.5431 80.6967 47.0361 78.6283 47.0361C71.5922 47.0361 65.8859 41.3298 65.8859 34.2937C65.8859 27.2554 71.5922 21.5513 78.6283 21.5513C80.6967 21.5513 82.6484 22.0443 84.3748 22.9195Z" fill="#FB9927"/>
<path d="M77.8385 7.96976V91.8913C77.8385 92.9334 76.9934 93.7786 75.9492 93.7786H17.0539C16.0096 93.7786 15.1625 92.9334 15.1625 91.8913V7.96976C15.1625 6.92758 16.0096 6.08051 17.0539 6.08051H29.3215C29.4463 7.0725 30.2934 7.83715 31.3174 7.83715H61.8868C62.911 7.83715 63.758 7.0725 63.8827 6.08051H75.9491C76.9934 6.08051 77.8385 6.92758 77.8385 7.96976Z" fill="#F8F3F1"/>
<path d="M26.8837 6.08051V11.644C26.8837 12.7547 27.7851 13.6561 28.8958 13.6561H30.0386V16.3522C30.0386 18.9297 32.1351 21.0262 34.7126 21.0262H58.2902C60.8677 21.0262 62.9642 18.9297 62.9642 16.3522V13.6559H64.107C65.2177 13.6559 66.1191 12.7545 66.1191 11.6438V6.08051H26.8837ZM59.946 16.3522C59.946 17.2657 59.2036 18.008 58.2902 18.008H34.7126C33.7992 18.008 33.0568 17.2657 33.0568 16.3522V13.6559H59.946V16.3522Z" fill="#EFE2DD"/>
<path d="M77.8399 7.96956V91.8904C77.8399 92.933 76.9936 93.7793 75.951 93.7793H71.5781C72.6207 93.7793 73.467 92.933 73.467 91.8904V7.96956C73.467 6.92698 72.6207 6.08069 71.5781 6.08069H75.9508C76.9936 6.08069 77.8399 6.92678 77.8399 7.96956Z" fill="#EFE2DD"/>
<path d="M70.868 28.235H22.135C21.3016 28.235 20.626 27.5594 20.626 26.726C20.626 25.8926 21.3016 25.217 22.135 25.217H70.868C71.7014 25.217 72.377 25.8926 72.377 26.726C72.377 27.5594 71.7014 28.235 70.868 28.235Z" fill="#EFE2DD"/>
<path d="M23.4035 86.569C22.606 86.569 21.9398 85.944 21.8978 85.1385C21.8545 84.3063 22.4939 83.5963 23.3263 83.553C24.4232 83.4957 25.5033 83.2364 26.5176 82.8119C26.4785 82.4149 26.4898 82.0051 26.5535 81.591C26.9328 79.118 28.1453 76.7928 29.9676 75.0434C31.7015 73.3789 33.3347 73.6844 34.2851 74.5258C35.1584 75.299 35.4892 76.5287 35.1279 77.6586C34.4176 79.8799 33.0683 81.8403 31.323 83.3535C31.7674 83.185 32.1549 82.9412 32.2926 82.8502C33.0595 82.3426 34.2054 81.7164 35.2978 82.1383C35.5957 82.2533 36.0867 82.5311 36.3797 83.1657C36.4933 83.1344 36.6301 83.0842 36.7717 83.0104C37.6107 82.5731 38.4136 82.0533 39.1586 81.4658C39.8551 80.9168 40.7785 80.8229 41.5687 81.2209C42.2217 81.55 42.6613 82.1496 42.7851 82.8479C43.4832 82.4817 44.1365 82.0342 44.733 81.5129C45.5398 80.8076 46.7392 80.7625 47.5847 81.4059C50.0568 83.2858 53.931 82.9416 57.3681 82.4715C58.1949 82.3582 58.9549 82.9364 59.0677 83.7621C59.1806 84.5879 58.6029 85.3489 57.7771 85.4617C53.9377 85.9873 49.5968 86.3506 46.2635 84.1657C45.4222 84.8364 44.5031 85.3998 43.524 85.8449C43.2404 85.974 42.5761 86.2764 41.7988 86.1266C40.9812 85.9696 40.342 85.3834 40.0232 84.5731C39.4263 84.9811 38.8051 85.3535 38.1662 85.6865C37.7474 85.9049 36.2799 86.5723 34.9789 85.9967C34.6152 85.8358 34.3076 85.5965 34.0695 85.2946C34.0342 85.317 33.9969 85.341 33.9578 85.367C31.6549 86.891 29.3361 86.9324 27.8406 85.5401C26.4705 86.1293 24.9967 86.4881 23.483 86.567C23.4566 86.5684 23.4299 86.569 23.4035 86.569ZM39.8031 83.2385C39.8029 83.2403 39.8029 83.242 39.8029 83.2438C39.8029 83.2414 39.8031 83.2397 39.8031 83.2385ZM32.0976 77.1826C32.0845 77.1948 32.0711 77.2074 32.0574 77.2205C31.099 78.1406 30.3691 79.2746 29.9273 80.5086C30.8722 79.5539 31.6258 78.4223 32.0976 77.1826Z" fill="#EFE2DD"/>
<path d="M38.31 48.4274H38.1059C37.2725 48.4274 36.5969 47.7518 36.5969 46.9184C36.5969 46.085 37.2725 45.4094 38.1059 45.4094H38.31C39.1434 45.4094 39.819 46.085 39.819 46.9184C39.819 47.7518 39.1434 48.4274 38.31 48.4274Z" fill="#EFE2DD"/>
<path d="M43.0867 48.4274H42.8826C42.0492 48.4274 41.3737 47.7518 41.3737 46.9184C41.3737 46.085 42.0492 45.4094 42.8826 45.4094H43.0867C43.9201 45.4094 44.5957 46.085 44.5957 46.9184C44.5957 47.7518 43.9201 48.4274 43.0867 48.4274Z" fill="#EFE2DD"/>
<path d="M47.8634 48.4274H47.6593C46.8259 48.4274 46.1503 47.7518 46.1503 46.9184C46.1503 46.085 46.8259 45.4094 47.6593 45.4094H47.8634C48.6968 45.4094 49.3723 46.085 49.3723 46.9184C49.3723 47.7518 48.6968 48.4274 47.8634 48.4274Z" fill="#EFE2DD"/>
<path d="M52.6401 48.4274H52.436C51.6026 48.4274 50.927 47.7518 50.927 46.9184C50.927 46.085 51.6026 45.4094 52.436 45.4094H52.6401C53.4735 45.4094 54.1491 46.085 54.1491 46.9184C54.1491 47.7518 53.4735 48.4274 52.6401 48.4274Z" fill="#EFE2DD"/>
<path d="M70.4235 42.5089H37.559C36.7256 42.5089 36.05 41.8333 36.05 40.9999C36.05 40.1665 36.7256 39.4909 37.559 39.4909H70.4235C71.2569 39.4909 71.9325 40.1665 71.9325 40.9999C71.9327 41.8333 71.2569 42.5089 70.4235 42.5089Z" fill="#EFE2DD"/>
<path d="M46.417 36.8422H37.559C36.7256 36.8422 36.05 36.1667 36.05 35.3333C36.05 34.4999 36.7256 33.8243 37.559 33.8243H46.417C47.2504 33.8243 47.926 34.4999 47.926 35.3333C47.926 36.1667 47.2504 36.8422 46.417 36.8422Z" fill="#EFE2DD"/>
<path d="M38.31 68.5904H38.1059C37.2725 68.5904 36.5969 67.9148 36.5969 67.0814C36.5969 66.248 37.2725 65.5724 38.1059 65.5724H38.31C39.1434 65.5724 39.819 66.248 39.819 67.0814C39.8192 67.9148 39.1434 68.5904 38.31 68.5904Z" fill="#EFE2DD"/>
<path d="M43.0867 68.5904H42.8826C42.0492 68.5904 41.3737 67.9148 41.3737 67.0814C41.3737 66.248 42.0492 65.5724 42.8826 65.5724H43.0867C43.9201 65.5724 44.5957 66.248 44.5957 67.0814C44.5957 67.9148 43.9201 68.5904 43.0867 68.5904Z" fill="#EFE2DD"/>
<path d="M47.8634 68.5904H47.6593C46.8259 68.5904 46.1503 67.9148 46.1503 67.0814C46.1503 66.248 46.8259 65.5724 47.6593 65.5724H47.8634C48.6968 65.5724 49.3723 66.248 49.3723 67.0814C49.3725 67.9148 48.6968 68.5904 47.8634 68.5904Z" fill="#EFE2DD"/>
<path d="M52.6401 68.5904H52.436C51.6026 68.5904 50.927 67.9148 50.927 67.0814C50.927 66.248 51.6026 65.5724 52.436 65.5724H52.6401C53.4735 65.5724 54.1491 66.248 54.1491 67.0814C54.1491 67.9148 53.4735 68.5904 52.6401 68.5904Z" fill="#EFE2DD"/>
<path d="M70.4235 62.6719H37.559C36.7256 62.6719 36.05 61.9963 36.05 61.1629C36.05 60.3295 36.7256 59.6539 37.559 59.6539H70.4235C71.2569 59.6539 71.9325 60.3295 71.9325 61.1629C71.9327 61.9963 71.2569 62.6719 70.4235 62.6719Z" fill="#EFE2DD"/>
<path d="M46.417 57.0053H37.559C36.7256 57.0053 36.05 56.3297 36.05 55.4963C36.05 54.6629 36.7256 53.9873 37.559 53.9873H46.417C47.2504 53.9873 47.926 54.6629 47.926 55.4963C47.926 56.3297 47.2504 57.0053 46.417 57.0053Z" fill="#EFE2DD"/>
<path d="M58.2906 19.2152H34.7125C32.1351 19.2152 30.0383 17.1185 30.0383 14.5409V9.43C30.0383 8.59661 30.7139 7.92102 31.5473 7.92102C32.3807 7.92102 33.0562 8.59661 33.0562 9.43V14.5411C33.0562 15.4542 33.7992 16.1972 34.7123 16.1972H58.2904C59.2035 16.1972 59.9465 15.4542 59.9465 14.5411V9.43C59.9465 8.59661 60.6221 7.92102 61.4555 7.92102C62.2889 7.92102 62.9644 8.59661 62.9644 9.43V14.5411C62.9646 17.1185 60.8678 19.2152 58.2906 19.2152Z" fill="#FCA62F"/>
<path d="M64.1072 10.6373H28.8958C27.7845 10.6373 26.8837 9.73652 26.8837 8.6252V0H66.1191V8.6252C66.1191 9.73633 65.2183 10.6373 64.1072 10.6373Z" fill="#12C65A"/>
<path d="M66.1191 0V8.62578C66.1191 9.73652 65.2177 10.6379 64.107 10.6379H60.1453C61.256 10.6379 62.1574 9.73652 62.1574 8.62578V0H66.1191Z" fill="#0FAD4E"/>
<path d="M34.057 6.82772H33.8631C33.0297 6.82772 32.3541 6.15214 32.3541 5.31874C32.3541 4.48534 33.0297 3.80975 33.8631 3.80975H34.057C34.8904 3.80975 35.566 4.48534 35.566 5.31874C35.566 6.15214 34.8904 6.82772 34.057 6.82772Z" fill="white"/>
<path d="M59.14 6.82772H58.9461C58.1127 6.82772 57.4371 6.15214 57.4371 5.31874C57.4371 4.48534 58.1127 3.80975 58.9461 3.80975H59.14C59.9734 3.80975 60.649 4.48534 60.649 5.31874C60.649 6.15214 59.9734 6.82772 59.14 6.82772Z" fill="white"/>
<path d="M78.6286 43.4922C85.6659 43.4922 91.3706 37.7874 91.3706 30.7502C91.3706 23.713 85.6659 18.0082 78.6286 18.0082C71.5914 18.0082 65.8867 23.713 65.8867 30.7502C65.8867 37.7874 71.5914 43.4922 78.6286 43.4922Z" fill="#12C65A"/>
<path d="M91.3707 30.7506C91.3707 37.7867 85.6664 43.493 78.6283 43.493C77.9623 43.493 77.3084 43.4426 76.6686 43.3441C82.7752 42.4004 87.4512 37.1209 87.4512 30.7506C87.4512 24.3783 82.7752 19.1006 76.6686 18.159C77.3084 18.0584 77.9623 18.008 78.6283 18.008C85.6664 18.008 91.3707 23.7123 91.3707 30.7506Z" fill="#0FAD4E"/>
<path d="M75.8492 36.2834C75.4631 36.2834 75.0768 36.136 74.7822 35.8414L72.4348 33.494C71.8453 32.9047 71.8453 31.9492 72.4348 31.3598C73.024 30.7705 73.9795 30.7705 74.5689 31.3598L75.8492 32.6401L82.8305 25.6588C83.4197 25.0695 84.3752 25.0695 84.9646 25.6588C85.5541 26.2481 85.5541 27.2035 84.9646 27.793L76.9164 35.8412C76.6215 36.136 76.2353 36.2834 75.8492 36.2834Z" fill="white"/>
<path d="M29.8768 43.1803H24.0419C23.4862 43.1803 23.0358 42.7299 23.0358 42.1742V36.3392C23.0358 35.7836 23.4862 35.3332 24.0419 35.3332H29.8768C30.4325 35.3332 30.8829 35.7836 30.8829 36.3392V42.1742C30.8829 42.7297 30.4325 43.1803 29.8768 43.1803Z" fill="#B5CCBE"/>
<path d="M29.8768 63.3433H24.0419C23.4862 63.3433 23.0358 62.893 23.0358 62.3373V56.5023C23.0358 55.9467 23.4862 55.4963 24.0419 55.4963H29.8768C30.4325 55.4963 30.8829 55.9467 30.8829 56.5023V62.3373C30.8829 62.893 30.4325 63.3433 29.8768 63.3433Z" fill="#B5CCBE"/>
</g>
<defs>
<clipPath id="clip0_711_165">
<rect width="100" height="100" fill="white"/>
</clipPath>
</defs>
</svg>
