<svg width="129" height="100" viewBox="0 0 129 100" fill="none" xmlns="http://www.w3.org/2000/svg">
<path d="M1.29979 97.7747C1.89714 98.5214 2.66625 99.1125 3.54152 99.4975C4.41678 99.8826 5.37221 100.05 6.32627 99.986C7.28033 99.9218 8.20471 99.6278 9.02052 99.129C9.83634 98.6302 10.5194 97.9415 11.0113 97.1215L19.9283 82.2599L20.0525 82.1854C23.4795 80.1292 27.3199 78.8584 31.297 78.4646C35.2742 78.0708 39.2892 78.5637 43.0529 79.9079H43.053C55.3643 84.3048 68.7942 84.4477 81.1963 80.3137L81.1964 80.3136C89.6411 77.4987 97.2672 72.657 103.407 66.2123C109.547 59.7675 114.014 51.916 116.417 43.345L128.57 0.00012207L114.67 7.9065C107.865 11.7774 100.334 14.2016 92.5487 15.0272C84.7633 15.8528 76.8913 15.0621 69.4257 12.7045L69.4256 12.7045C63.7274 10.905 57.6789 10.5084 51.7944 11.5483C45.91 12.5881 40.3637 15.0337 35.6273 18.6771L35.6272 18.6772C31.3972 21.931 27.9188 26.059 25.4294 30.7795C22.94 35.5001 21.498 40.702 21.202 46.0305L20.2387 63.3708C20.0339 67.0558 19.0768 70.6598 17.4263 73.9608L15.494 77.8255L2.02511 89.6108C0.876032 90.6162 0.159248 92.0263 0.0241257 93.5472C-0.110997 95.0681 0.345964 96.5824 1.29979 97.7747Z" fill="#A0CC00"/>
<path d="M68.5992 66.8682C68.2532 67.2821 67.7624 67.5487 67.2268 67.6136C66.6911 67.6785 66.1509 67.5368 65.716 67.2175C61.9565 64.4758 57.6286 62.6148 53.0526 61.7721C48.4765 60.9295 43.7695 61.1267 39.2801 62.3493L29.3929 65.0423C29.1242 65.1155 28.8437 65.1351 28.5674 65.0998C28.2911 65.0646 28.0244 64.9752 27.7827 64.8369C27.5409 64.6985 27.3288 64.5139 27.1584 64.2936C26.9881 64.0732 26.8628 63.8215 26.7897 63.5527L26.7389 63.3657C26.5915 62.8233 26.6655 62.2445 26.9447 61.7566C27.2239 61.2687 27.6854 60.9117 28.2277 60.764L38.1133 58.0714C43.2491 56.6726 48.6339 56.4478 53.8685 57.4137C59.103 58.3797 64.053 60.5115 68.3513 63.6511C68.5846 63.8226 68.7804 64.0401 68.9264 64.2901C69.0725 64.5401 69.1659 64.8173 69.2007 65.1048C69.2356 65.3922 69.2112 65.6837 69.1291 65.9614C69.047 66.2391 68.9089 66.497 68.7233 66.7192L68.5992 66.8682Z" fill="#85B200"/>
<path d="M93.021 51.338C92.7332 51.8013 92.2775 52.1354 91.7491 52.2704C91.2207 52.4055 90.6605 52.331 90.1858 52.0627C79.6202 46.0122 67.2174 44.0034 55.2822 46.4096L48.5447 47.7573C48.4997 47.7662 48.4551 47.7767 48.4108 47.7886L42.09 49.4853C41.5469 49.6311 40.9681 49.5552 40.481 49.2743C39.9939 48.9933 39.6383 48.5304 39.4925 47.9873L39.4423 47.8C39.3701 47.5311 39.3515 47.2506 39.3878 46.9745C39.424 46.6984 39.5142 46.4322 39.6533 46.191C39.7924 45.9498 39.9777 45.7384 40.1985 45.5688C40.4193 45.3992 40.6714 45.2747 40.9403 45.2025L47.3306 43.4871L47.6039 43.4232L54.4126 42.0614C67.389 39.445 80.874 41.6261 92.3639 48.1999C92.6135 48.3409 92.832 48.531 93.0063 48.7586C93.1806 48.9863 93.307 49.2468 93.378 49.5246C93.449 49.8024 93.4631 50.0916 93.4194 50.375C93.3757 50.6584 93.2752 50.93 93.1239 51.1735L93.021 51.338Z" fill="#85B200"/>
<path d="M99.5365 41.5307C97.2157 41.5301 94.8979 41.3647 92.6006 41.0357L86.1301 40.1114L73.5205 38.208C72.9644 38.1241 72.4645 37.8227 72.1307 37.3702C71.7969 36.9177 71.6565 36.3512 71.7404 35.7951L71.7693 35.6036C71.8109 35.3282 71.9063 35.0638 72.05 34.8253C72.1938 34.5869 72.3831 34.3791 72.6071 34.2138C72.8312 34.0485 73.0856 33.9289 73.3559 33.862C73.6262 33.795 73.907 33.7819 74.1823 33.8235L86.7745 35.7242L93.2277 36.6458C98.2517 37.3687 103.363 37.2209 108.337 36.209C108.87 36.1037 109.422 36.2076 109.881 36.4993C110.339 36.791 110.667 37.2479 110.797 37.7753L110.844 37.9628C110.913 38.2417 110.925 38.5318 110.879 38.8155C110.833 39.0992 110.73 39.3706 110.576 39.6133C110.422 39.856 110.22 40.0649 109.983 40.2275C109.746 40.3901 109.479 40.5029 109.197 40.5591C106.017 41.2049 102.781 41.5304 99.5365 41.5307Z" fill="#85B200"/>
<path d="M34.602 51.2746C34.1325 51.5828 33.5599 51.692 33.0099 51.5785C32.4599 51.4649 31.9774 51.1377 31.6684 50.6688L30.8417 49.4144C28.4657 45.8761 27.5577 41.5529 28.3094 37.3576C28.363 37.0578 28.4805 36.773 28.654 36.5226C28.8274 36.2722 29.0527 36.0621 29.3146 35.9065C29.5764 35.7509 29.8687 35.6535 30.1715 35.6209C30.4744 35.5882 30.7807 35.6211 31.0697 35.7174L31.2549 35.7791C31.7404 35.9446 32.1501 36.2792 32.4092 36.7218C32.6683 37.1644 32.7596 37.6854 32.6664 38.1897C32.1359 41.2424 32.8039 44.3821 34.5311 46.9545L35.0761 47.7719L35.3768 48.23C35.5296 48.4628 35.635 48.7233 35.6871 48.9969C35.7392 49.2704 35.7369 49.5515 35.6803 49.8241C35.6237 50.0968 35.514 50.3556 35.3574 50.5858C35.2008 50.816 35.0004 51.0132 34.7676 51.1659L34.602 51.2746Z" fill="#85B200"/>
<path d="M51.0656 43.2124H50.8717C50.3094 43.2124 49.7701 42.989 49.3725 42.5914C48.9749 42.1937 48.7515 41.6544 48.7515 41.0921V32.6074C48.7466 27.7391 49.9881 22.9506 52.3578 18.698C52.4999 18.441 52.6936 18.2162 52.9269 18.0379C53.1601 17.8595 53.4278 17.7314 53.7131 17.6616C53.9983 17.5919 54.2949 17.582 54.5841 17.6325C54.8734 17.6831 55.149 17.7931 55.3937 17.9555L55.5559 18.0636C56 18.3616 56.3154 18.8161 56.4392 19.3364C56.563 19.8567 56.486 20.4045 56.2237 20.8705C54.2274 24.46 53.1817 28.5002 53.1858 32.6074V41.0921C53.1858 41.6544 52.9624 42.1937 52.5648 42.5914C52.1672 42.989 51.6279 43.2124 51.0656 43.2124Z" fill="#85B200"/>
<path d="M67.6828 34.6419L67.4989 34.5806C67.2348 34.4925 66.9906 34.3533 66.7802 34.1709C66.5698 33.9885 66.3975 33.7664 66.273 33.5174C66.1484 33.2683 66.0742 32.9972 66.0544 32.7195C66.0347 32.4417 66.0698 32.1628 66.1579 31.8987L66.6029 30.5636C67.9582 26.5312 70.8335 23.1867 74.617 21.2419C74.8891 21.1026 75.1881 21.0238 75.4935 21.0109C75.799 20.9979 76.1036 21.0511 76.3865 21.1668C76.6695 21.2826 76.9241 21.458 77.1329 21.6813C77.3417 21.9045 77.4998 22.1703 77.5964 22.4603L77.6577 22.644C77.8156 23.1298 77.7944 23.6561 77.598 24.1276C77.4015 24.5991 77.0428 24.9848 76.5867 25.2147C73.8596 26.6324 71.7887 29.0525 70.8096 31.9658L70.3646 33.3009C70.1868 33.8343 69.8043 34.2753 69.3014 34.5268C68.7985 34.7782 68.2162 34.8196 67.6828 34.6419Z" fill="#85B200"/>
<path d="M128.57 0L114.871 19.076C110.191 25.5927 104.027 30.9015 96.8886 34.5633C89.7502 38.225 81.8425 40.1345 73.8196 40.1336C65.092 40.1337 56.5131 42.3939 48.9185 46.6941C41.3238 50.9944 34.9722 57.1881 30.4822 64.6722L19.9285 82.2599L11.0127 97.1205C10.5722 97.855 9.97791 98.4853 9.27059 98.9681C8.56328 99.4509 7.75976 99.7747 6.91532 99.9173C6.07089 100.06 5.2056 100.018 4.37898 99.7939C3.55236 99.5701 2.78405 99.1699 2.12691 98.6207C1.46977 98.0716 0.939398 97.3866 0.572299 96.6129C0.2052 95.8392 0.0100851 94.9951 0.000380687 94.1388C-0.00932368 93.2825 0.166613 92.4342 0.516084 91.6524C0.865555 90.8705 1.38026 90.1737 2.02479 89.6098L15.4941 77.8255L24.6815 60.2849C29.2671 51.5323 36.1602 44.2012 44.6142 39.0858C53.0681 33.9705 62.7606 31.2658 72.6418 31.2649C85.8228 31.2648 98.5512 26.457 108.441 17.7429L128.57 0Z" fill="#85B200"/>
<path d="M19.9285 82.2598L11.0127 97.1205C10.5722 97.8549 9.97791 98.4852 9.27059 98.968C8.56328 99.4508 7.75976 99.7747 6.91532 99.9172C6.07089 100.06 5.2056 100.018 4.37898 99.7939C3.55236 99.5701 2.78405 99.1698 2.12691 98.6207C1.46977 98.0716 0.939398 97.3866 0.572299 96.6129C0.2052 95.8391 0.0100851 94.9951 0.000380687 94.1388C-0.00932368 93.2824 0.166613 92.4342 0.516084 91.6523C0.865555 90.8705 1.38026 90.1737 2.02479 89.6098L15.4941 77.8255L19.9285 82.2598Z" fill="#719600"/>
</svg>
